<?xml version="1.0" encoding="UTF-8"?>
<svg width="51px" height="51px" viewBox="0 0 51 51" version="1.1" xmlns="http://www.w3.org/2000/svg" xmlns:xlink="http://www.w3.org/1999/xlink">
    <!-- Generator: Sketch 50 (54983) - http://www.bohemiancoding.com/sketch -->
    <title>Group 2</title>
    <desc>Created with Sketch.</desc>
    <defs></defs>
    <g id="Page-1" stroke="none" stroke-width="1" fill="none" fill-rule="evenodd">
        <g id="集团客户管理/集团客户总览/查看主页/列表" transform="translate(-401.000000, -175.000000)">
            <g id="Group-2" transform="translate(401.000000, 175.000000)">
                <circle id="Oval" fill="#3778FF" cx="25.5" cy="25.5" r="25.5"></circle>
                <g id="企业" transform="translate(12.000000, 14.000000)" fill="#FFFFFF" fill-rule="nonzero">
                    <path d="M26.1,20.3076923 L25.2,20.3076923 L25.2,8.46153846 C25.2,6.6 23.58,5.07692308 21.6,5.07692308 L16.2,5.07692308 L16.2,3.38461538 C16.2,1.52307692 14.58,0 12.6,0 L5.4,0 C3.42,0 1.8,1.52307692 1.8,3.38461538 L1.8,20.3076923 L0.9,20.3076923 C0.396,20.3076923 0,20.68 0,21.1538462 C0,21.6276923 0.396,22 0.9,22 L26.1,22 C26.604,22 27,21.6276923 27,21.1538462 C27,20.68 26.604,20.3076923 26.1,20.3076923 Z M14.4,5.07692308 L14.4,6.76923077 L14.4,20.3076923 L3.6,20.3076923 L3.6,3.38461538 C3.6,2.45384615 4.41,1.69230769 5.4,1.69230769 L12.6,1.69230769 C13.59,1.69230769 14.4,2.45384615 14.4,3.38461538 L14.4,5.07692308 Z M23.4,20.3076923 L16.2,20.3076923 L16.2,6.76923077 L21.6,6.76923077 C22.59,6.76923077 23.4,7.53076923 23.4,8.46153846 L23.4,20.3076923 Z M11.7,5.07692308 L6.3,5.07692308 C5.796,5.07692308 5.4,5.44923077 5.4,5.92307692 C5.4,6.39692308 5.796,6.76923077 6.3,6.76923077 L11.7,6.76923077 C12.204,6.76923077 12.6,6.39692308 12.6,5.92307692 C12.6,5.44923077 12.204,5.07692308 11.7,5.07692308 Z M11.7,10.1538462 L6.3,10.1538462 C5.796,10.1538462 5.4,10.5261538 5.4,11 C5.4,11.4738462 5.796,11.8461538 6.3,11.8461538 L11.7,11.8461538 C12.204,11.8461538 12.6,11.4738462 12.6,11 C12.6,10.5261538 12.204,10.1538462 11.7,10.1538462 Z M11.7,15.2307692 L6.3,15.2307692 C5.796,15.2307692 5.4,15.6030769 5.4,16.0769231 C5.4,16.5507692 5.796,16.9230769 6.3,16.9230769 L11.7,16.9230769 C12.204,16.9230769 12.6,16.5507692 12.6,16.0769231 C12.6,15.6030769 12.204,15.2307692 11.7,15.2307692 Z M20.7,10.1538462 L18.9,10.1538462 C18.396,10.1538462 18,10.5261538 18,11 C18,11.4738462 18.396,11.8461538 18.9,11.8461538 L20.7,11.8461538 C21.204,11.8461538 21.6,11.4738462 21.6,11 C21.6,10.5261538 21.204,10.1538462 20.7,10.1538462 Z M20.7,15.2307692 L18.9,15.2307692 C18.396,15.2307692 18,15.6030769 18,16.0769231 C18,16.5507692 18.396,16.9230769 18.9,16.9230769 L20.7,16.9230769 C21.204,16.9230769 21.6,16.5507692 21.6,16.0769231 C21.6,15.6030769 21.204,15.2307692 20.7,15.2307692 Z" id="Shape"></path>
                </g>
            </g>
        </g>
    </g>
</svg>